<svg xmlns="http://www.w3.org/2000/svg" xmlns:xlink="http://www.w3.org/1999/xlink" viewBox="0 0 865.85 797.38"><defs><style>.cls-1{isolation:isolate;}.cls-2{fill:#ee772a;}.cls-3,.cls-34{fill:#f49e5a;}.cls-4{fill:#e74041;}.cls-5{fill:#1d1d1b;}.cls-6{fill:#e28241;}.cls-7{fill:url(#linear-gradient);}.cls-8{fill:url(#linear-gradient-2);}.cls-10,.cls-13,.cls-29,.cls-32,.cls-33,.cls-9{mix-blend-mode:screen;}.cls-9{opacity:0.7;fill:url(#linear-gradient-3);}.cls-10{opacity:0.9;fill:url(#linear-gradient-4);}.cls-11,.cls-12{fill:#fff;}.cls-12{mix-blend-mode:color-dodge;opacity:0.4;}.cls-13{fill:url(#linear-gradient-5);}.cls-14{fill:url(#linear-gradient-6);}.cls-15,.cls-17,.cls-28{mix-blend-mode:multiply;}.cls-15{opacity:0.8;fill:url(#linear-gradient-7);}.cls-16{fill:url(#linear-gradient-8);}.cls-18{fill:url(#linear-gradient-9);}.cls-19{fill:url(#linear-gradient-10);}.cls-20{fill:url(#linear-gradient-11);}.cls-21{fill:url(#linear-gradient-12);}.cls-22{fill:url(#linear-gradient-13);}.cls-23{fill:url(#linear-gradient-14);}.cls-24{fill:url(#linear-gradient-15);}.cls-25{fill:url(#linear-gradient-16);}.cls-26{fill:url(#linear-gradient-17);}.cls-27{fill:url(#linear-gradient-18);}.cls-28{fill:url(#linear-gradient-19);}.cls-29{fill:url(#linear-gradient-20);}.cls-30{fill:url(#linear-gradient-21);}.cls-31{fill:url(#linear-gradient-22);}.cls-32{fill:url(#linear-gradient-23);}.cls-33{fill:url(#linear-gradient-24);}.cls-34{font-size:164.12px;font-family:ArialMT, Arial;}</style><linearGradient id="linear-gradient" x1="496.75" y1="-98.57" x2="1348.17" y2="634.96" gradientTransform="translate(1499.7 609.18) rotate(180)" gradientUnits="userSpaceOnUse"><stop offset="0" stop-color="#fccf61"/><stop offset="0.08" stop-color="#fff"/><stop offset="0.19" stop-color="#f4d271"/><stop offset="0.26" stop-color="#d8a73b"/><stop offset="0.32" stop-color="#bf8729"/><stop offset="0.36" stop-color="#b2761f"/><stop offset="0.38" stop-color="#b1741e"/><stop offset="0.47" stop-color="#ad701d"/><stop offset="0.51" stop-color="#b77d26"/><stop offset="0.56" stop-color="#c69133"/><stop offset="0.68" stop-color="#f4d15e"/><stop offset="0.7" stop-color="#f1ce5c"/><stop offset="0.72" stop-color="#e9c456"/><stop offset="0.74" stop-color="#dbb34b"/><stop offset="0.75" stop-color="#c89a3d"/><stop offset="0.77" stop-color="#af7c2a"/><stop offset="0.79" stop-color="#905613"/><stop offset="0.81" stop-color="#965e18"/><stop offset="0.84" stop-color="#a87425"/><stop offset="0.88" stop-color="#c5973b"/><stop offset="0.92" stop-color="#edc95a"/><stop offset="0.94" stop-color="#fad964"/></linearGradient><linearGradient id="linear-gradient-2" x1="441.13" y1="120.09" x2="852.1" y2="644.03" gradientUnits="userSpaceOnUse"><stop offset="0" stop-color="#d8a73b"/><stop offset="0.08" stop-color="#bf8729"/><stop offset="0.14" stop-color="#b2761f"/><stop offset="0.15" stop-color="#b1741e"/><stop offset="0.22" stop-color="#ad701d"/><stop offset="0.3" stop-color="#b77d26"/><stop offset="0.39" stop-color="#c69133"/><stop offset="0.66" stop-color="#905613"/><stop offset="0.88" stop-color="#905613"/><stop offset="1" stop-color="#3f1400"/></linearGradient><linearGradient id="linear-gradient-3" x1="768.27" y1="-8.37" x2="703.69" y2="148.28" gradientTransform="matrix(1, 0, 0, -1, -7.21, 609.18)" gradientUnits="userSpaceOnUse"><stop offset="0.02" stop-color="#fff"/><stop offset="0.29" stop-color="#fad964"/><stop offset="0.56" stop-color="#f4d15e"/><stop offset="0.59" stop-color="#bba049"/><stop offset="0.63" stop-color="#857235"/><stop offset="0.66" stop-color="#584c25"/><stop offset="0.7" stop-color="#352e18"/><stop offset="0.73" stop-color="#1b180f"/><stop offset="0.76" stop-color="#0c0b09"/><stop offset="0.79" stop-color="#070707"/></linearGradient><linearGradient id="linear-gradient-4" x1="490.58" y1="309.13" x2="681.6" y2="432.47" gradientUnits="userSpaceOnUse"><stop offset="0.02" stop-color="#fff"/><stop offset="0.29" stop-color="#fad964"/><stop offset="0.59" stop-color="#f4d15e"/><stop offset="0.65" stop-color="#bba049"/><stop offset="0.72" stop-color="#857235"/><stop offset="0.78" stop-color="#584c25"/><stop offset="0.84" stop-color="#352e18"/><stop offset="0.9" stop-color="#1b180f"/><stop offset="0.96" stop-color="#0c0b09"/><stop offset="1" stop-color="#070707"/></linearGradient><linearGradient id="linear-gradient-5" x1="650.48" y1="-27.5" x2="904.27" y2="290.15" gradientTransform="translate(1499.7 609.18) rotate(180)" gradientUnits="userSpaceOnUse"><stop offset="0" stop-color="#fccf61"/><stop offset="0.06" stop-color="#fff"/><stop offset="0.19" stop-color="#f4d271"/><stop offset="0.37" stop-color="#fff"/><stop offset="0.49" stop-color="#fad964"/><stop offset="0.65" stop-color="#f4d15e"/><stop offset="0.76" stop-color="#c5973b"/><stop offset="0.87" stop-color="#9f681e"/><stop offset="0.92" stop-color="#905613"/></linearGradient><linearGradient id="linear-gradient-6" x1="722.64" y1="661.27" x2="669.15" y2="275.95" xlink:href="#linear-gradient-2"/><linearGradient id="linear-gradient-7" x1="825.32" y1="189.02" x2="745.52" y2="271.38" gradientTransform="matrix(-1, 0.07, -0.07, -1, 1544.92, 546.15)" gradientUnits="userSpaceOnUse"><stop offset="0" stop-color="#fff"/><stop offset="0.08" stop-color="#ebd8b7"/><stop offset="0.17" stop-color="#d7b270"/><stop offset="0.23" stop-color="#cb9a44"/><stop offset="0.26" stop-color="#c69133"/><stop offset="0.66" stop-color="#905613"/><stop offset="0.73" stop-color="#885011"/><stop offset="0.83" stop-color="#723e0c"/><stop offset="0.95" stop-color="#4f2104"/><stop offset="1" stop-color="#3f1400"/></linearGradient><linearGradient id="linear-gradient-8" x1="510.68" y1="234.92" x2="811.95" y2="575.49" gradientUnits="userSpaceOnUse"><stop offset="0" stop-color="#fccf61"/><stop offset="0.34" stop-color="#d8a73b"/><stop offset="0.49" stop-color="#ba8126"/><stop offset="0.58" stop-color="#ad701d"/><stop offset="0.67" stop-color="#c28d31"/><stop offset="0.86" stop-color="#f4d15e"/><stop offset="0.88" stop-color="#efcb5a"/><stop offset="0.91" stop-color="#e1ba50"/><stop offset="0.94" stop-color="#cb9e3f"/><stop offset="0.98" stop-color="#ab7828"/><stop offset="1" stop-color="#905613"/></linearGradient><linearGradient id="linear-gradient-9" x1="669.19" y1="212.48" x2="669.19" y2="695.38" gradientUnits="userSpaceOnUse"><stop offset="0" stop-color="#fccf61"/><stop offset="0.28" stop-color="#905613"/><stop offset="0.32" stop-color="#965e18"/><stop offset="0.38" stop-color="#a87425"/><stop offset="0.45" stop-color="#c5973b"/><stop offset="0.54" stop-color="#edc95a"/><stop offset="0.56" stop-color="#fad964"/><stop offset="0.86" stop-color="#9a621a"/></linearGradient><linearGradient id="linear-gradient-10" x1="702.76" y1="212.52" x2="702.76" y2="695.37" xlink:href="#linear-gradient-9"/><linearGradient id="linear-gradient-11" x1="740.4" y1="212.43" x2="740.4" y2="695.39" xlink:href="#linear-gradient-9"/><linearGradient id="linear-gradient-12" x1="608.66" y1="212.48" x2="608.66" y2="695.36" gradientUnits="userSpaceOnUse"><stop offset="0" stop-color="#fccf61"/><stop offset="0.28" stop-color="#905613"/><stop offset="0.32" stop-color="#965e18"/><stop offset="0.38" stop-color="#a87425"/><stop offset="0.45" stop-color="#c5973b"/><stop offset="0.54" stop-color="#edc95a"/><stop offset="0.56" stop-color="#fad964"/><stop offset="0.86" stop-color="#9a621a"/><stop offset="0.97" stop-color="#ac5218"/><stop offset="1" stop-color="#b14e18"/></linearGradient><linearGradient id="linear-gradient-13" x1="630.28" y1="212.49" x2="630.28" y2="695.34" xlink:href="#linear-gradient-12"/><linearGradient id="linear-gradient-14" x1="649.38" y1="212.49" x2="649.38" y2="695.34" xlink:href="#linear-gradient-12"/><linearGradient id="linear-gradient-15" x1="685.66" y1="212.48" x2="685.66" y2="695.4" xlink:href="#linear-gradient-12"/><linearGradient id="linear-gradient-16" x1="723.41" y1="212.48" x2="723.41" y2="695.38" xlink:href="#linear-gradient-12"/><linearGradient id="linear-gradient-17" x1="749.89" y1="212.5" x2="749.89" y2="695.3" xlink:href="#linear-gradient-12"/><linearGradient id="linear-gradient-18" x1="772.51" y1="212.47" x2="772.51" y2="695.42" xlink:href="#linear-gradient-12"/><linearGradient id="linear-gradient-19" x1="531.64" y1="247.06" x2="748.59" y2="507.4" gradientUnits="userSpaceOnUse"><stop offset="0" stop-color="#fcce5d"/><stop offset="0.08" stop-color="#fff"/><stop offset="0.19" stop-color="#ebcd76"/><stop offset="0.26" stop-color="#cda240"/><stop offset="0.32" stop-color="#b4832e"/><stop offset="0.36" stop-color="#a77224"/><stop offset="0.38" stop-color="#a67023"/><stop offset="0.47" stop-color="#a26c21"/><stop offset="0.51" stop-color="#ad792a"/><stop offset="0.56" stop-color="#bc8c38"/><stop offset="0.68" stop-color="#eacb64"/><stop offset="0.7" stop-color="#e7c862"/><stop offset="0.72" stop-color="#dfbe5b"/><stop offset="0.74" stop-color="#d1ad50"/><stop offset="0.75" stop-color="#bd9441"/><stop offset="0.77" stop-color="#a4762d"/><stop offset="0.79" stop-color="#865216"/><stop offset="0.81" stop-color="#8d5a1b"/><stop offset="0.84" stop-color="#9e7029"/><stop offset="0.88" stop-color="#bc9341"/><stop offset="0.93" stop-color="#e4c561"/><stop offset="0.94" stop-color="#f0d36a"/></linearGradient><linearGradient id="linear-gradient-20" x1="553.48" y1="258.62" x2="800.72" y2="572.99" xlink:href="#linear-gradient-19"/><linearGradient id="linear-gradient-21" x1="893.3" y1="567.91" x2="648.52" y2="217.53" gradientUnits="userSpaceOnUse"><stop offset="0" stop-color="#fccf61"/><stop offset="0.28" stop-color="#905613"/><stop offset="0.37" stop-color="#965e18"/><stop offset="0.51" stop-color="#a87425"/><stop offset="0.68" stop-color="#c5973b"/><stop offset="0.88" stop-color="#edc95a"/><stop offset="0.94" stop-color="#fad964"/></linearGradient><linearGradient id="linear-gradient-22" x1="717.37" y1="690.81" x2="472.59" y2="340.43" xlink:href="#linear-gradient-21"/><linearGradient id="linear-gradient-23" x1="827.47" y1="461.63" x2="827.47" y2="513.23" gradientUnits="userSpaceOnUse"><stop offset="0.08" stop-color="#fff"/><stop offset="0.36" stop-color="#a77224"/></linearGradient><linearGradient id="linear-gradient-24" x1="546.14" y1="461.63" x2="546.14" y2="513.23" xlink:href="#linear-gradient-23"/></defs><g class="cls-1"><g id="Layer_1" data-name="Layer 1"><path class="cls-2" d="M422.63,325.94c13.55,10.36,33.27,8.27,48.51.61s27.58-19.93,41.36-30c12.53-9.14,29.48-16.58,43-9,11.35,6.31,15.25,23,7.89,33.68-9.95,14.43-31.36,13.33-47.06,21.09-16.3,8.06-26.07,25.71-42.05,34.38-17.75,9.64-39.43,6.45-59.34,3-6.42-1.11-14.71-4.75-13.37-11.13Z" transform="translate(-18.82 -25.31)"/><path class="cls-2" d="M475.2,544.49l28.42-5c8.74-1.53,18.7-2.77,25.62,2.78,8.11,6.51,7.57,19.8,1.48,28.23S514.66,583.58,505,587.34a303.11,303.11,0,0,1-89.68,19.79Z" transform="translate(-18.82 -25.31)"/><path class="cls-2" d="M348.9,155.44a114.65,114.65,0,0,0-49.71-37.31c-13.38-5.25-47.41-15.71-60.48-5.38-12.06,9.53-4.22,44.14-.64,56.42,6.07,20.84,18.08,40,34.79,54,3.62,3,7.52,5.86,12,7.44Z" transform="translate(-18.82 -25.31)"/><path class="cls-2" d="M510.19,131.51c4.26-35-9.07-71.55-34.37-96C461.24,21.4,453.13,22,439.55,36.79a90.88,90.88,0,0,0-7.16,115Z" transform="translate(-18.82 -25.31)"/><path class="cls-3" d="M307,232.5q-15.33,21.94-30.65,43.88c-35.9,51.42-72.68,104.88-84.34,166.5s8.94,134,64.26,163.52c24.65,13.15,53.28,16.56,81.2,17.36,32.9.94,66.84-1.69,96.45-16.07s54.22-42.51,56.8-75.33c2.85-36.21-20.15-68.56-37.81-100.3a385.78,385.78,0,0,1-48.34-179.49Z" transform="translate(-18.82 -25.31)"/><path class="cls-4" d="M312.22,337.22c23.93,14.29,52.75,18.94,80.54,16.86,16.62-1.24,35.2-6.32,42.88-21.11,8.35-16.07-.28-35.92-12.1-49.64-28.94-33.61-80.22-48.15-122.61-34.67C247.7,265.6,276.9,316.13,312.22,337.22Z" transform="translate(-18.82 -25.31)"/><path class="cls-3" d="M520.27,272.25c-11.21,15-26.08,26.44-41.63,35.79-48.27,29-108.09,39.43-156.81,15.61s-80.71-86.81-63.78-143.4c9.14-30.59,25.06-54.21,44.94-71.57,30.38-26.56,70-38.51,108.81-38.41C513.21,70.51,609.14,153,520.27,272.25Z" transform="translate(-18.82 -25.31)"/><path class="cls-2" d="M246.33,587.44c-12.91,9.37-60.19-16.57-72-22.6-20.31-10.39-40.68-22.16-54.8-40.08-14.58-18.51-21-41.8-22.24-65.6a181.74,181.74,0,0,1,.44-24.92c.17-2,.37-4,.58-5.92a364,364,0,0,1,6.94-38.89c2.44-10.81,5.12-21.58,7.63-32.38,2.16-9.27,4.19-18.56,5.82-27.94.22-1.26.42-2.58.57-3.91.69-6.3.22-12.94-4.49-16.82a13.24,13.24,0,0,0-8.41-2.78,20.9,20.9,0,0,0-2.49.1,27.76,27.76,0,0,0-5.39,1.13c-7.29,2.26-13.71,6.41-20,10.81-4.72,3.28-9.38,6.7-14.32,9.58-11.55,6.73-27.36,10-37.53,1.34-12.69-10.8-7.86-31.37-.08-46.1,8.88-16.8,20.31-33.08,34.08-45.32,9.48-8.43,20.07-14.94,31.71-18.4,14.61-4.33,30.85-3.83,48.62,3.76a57.32,57.32,0,0,1,18.51,12.55c8.19,8.29,13.65,18.82,17.23,30.37,6.94,22.45,6.76,48.8,5.54,70.26-.11,2.09-.26,4.19-.41,6.27-.84,11.49-2.14,22.94-3.5,34.39-2.09,17.69-4.31,35.36-5.1,53.09-.29,6.62-.38,13.24-.2,19.89a186.08,186.08,0,0,0,1.51,19.27c4.66,35.37,19.92,67.68,50.62,88.53C232.41,562,261.49,576.43,246.33,587.44Z" transform="translate(-18.82 -25.31)"/><path class="cls-4" d="M482.1,231.31a39.48,39.48,0,0,1,1.14,37.6c-8.65-.25-16.1-8.88-15.08-17.48a276.18,276.18,0,0,0,2.32-27.84C478.05,227.06,474.54,227.84,482.1,231.31Z" transform="translate(-18.82 -25.31)"/><path class="cls-5" d="M461.5,210c4.68,9.45,8.3,21.94,3.17,31.93-3.61,7-12.81,12.72-20.58,8.89-4.75-2.34-8.93,4.62-4.18,7.16,11.27,6.05,24.88.46,31.12-10.2,7.6-13,1.16-28.81-8.06-38.92-.75-.82-1.92.23-1.47,1.14Z" transform="translate(-18.82 -25.31)"/><path class="cls-5" d="M463.87,211.18c3.14,9.55,10.51,21.45,20.85,24.21,9.34,2.5,20.41-1.34,23.41-11.1,1.75-5.69-7-8-8.86-2.44-2.2,6.49-10.52,7.14-16.06,5.07-8.08-3-12-10.76-17.47-16.82a1.12,1.12,0,0,0-1.87,1.08Z" transform="translate(-18.82 -25.31)"/><path class="cls-2" d="M431.07,112.57c-.42,7-5.17,14.29-12.16,15.26-10.36,1.45-17.05-10-23.5-18.27a54.43,54.43,0,0,0-28.94-19c-.51,10.57,8.08,19,14.92,27.05s12.5,20.17,6.19,28.65c-6.58,8.84-21.06,6.07-29.33-1.21s-13.31-17.7-21.69-24.84c-9.26-7.86-21.23-10.76-33.57-11.54,30.38-26.56,70-38.51,108.81-38.41a123,123,0,0,1,13.67,22.15C428.58,98.75,431.49,105.52,431.07,112.57Z" transform="translate(-18.82 -25.31)"/><path class="cls-5" d="M479.7,153.5c-1.86-5.84,2.53-13.93,8.1-16.38,5.34-2.35,11.83.17,14.88,4.91,4.12,6.41,13.9.75,10.25-6-5.64-10.4-19.69-14.79-30.08-8.82s-11.47,17.81-6.33,27.62a1.75,1.75,0,0,0,3.18-1.34Z" transform="translate(-18.82 -25.31)"/><path class="cls-5" d="M380.39,197c-7-9.42-22.08-14.3-32.88-9.16-9.9,4.72-15.14,16.41-10.19,26.49,3,6.05,12.2.72,9.09-5.32-2.82-5.48,2.73-11.72,7.79-13.25,8.3-2.51,15.7,2.75,23.22,5.11,2.05.64,4.36-2,3-3.87Z" transform="translate(-18.82 -25.31)"/><path class="cls-5" d="M461.64,195.05c-8.35.24-26.38,10.67-17.69,20.81,3.77,4.38,9.92,4.4,14.61,1.55,5.42-3.31,8.94-9.37,10.82-15.27,1-3-1.14-5.76-3.83-6.75-9.78-3.6-20.68,3.84-21.11,14.1-.25,6.12,9.45,7.53,10.78,1.46.76-3.48,3.79-6.13,7.42-5l-3.84-6.75a19.41,19.41,0,0,1-3.69,8.05c-.59.73-3.78,4.22-4.76,2.56-.54-.93,4-5.13,4.74-5.78a31.74,31.74,0,0,1,7.75-4.6c2.18-1,1-4.47-1.2-4.4Z" transform="translate(-18.82 -25.31)"/><path class="cls-2" d="M515.27,186c5-1.77,9.41-5.12,13.91-7.8q7.34-4.36,14.78-8.56c9.95-5.59,20-11,30.33-15.88,8-3.77.46-17-7-11.94-9.44,6.44-19,12.74-28.28,19.39q-6.62,4.72-13.12,9.61c-4.39,3.3-9.7,6.53-13.2,10.78-1.5,1.82-.16,5.37,2.56,4.4Z" transform="translate(-18.82 -25.31)"/><path class="cls-2" d="M523.77,201.54c8.72-2.51,17.05-7.29,25.4-10.81,8.7-3.67,17.6-6.79,26.55-9.78,8.1-2.71,3.35-14.66-4.61-10.93-8.44,4-16.78,8.15-25.17,12.22-8.2,4-17.46,7.68-24.71,13.27-2.75,2.11-1.36,7.15,2.54,6Z" transform="translate(-18.82 -25.31)"/><path class="cls-2" d="M387.63,234.85c-4.38-.3-8.89,1.24-13.1,2.3-4.88,1.23-9.71,2.6-14.48,4.16-9.29,3-18.2,6.8-27.22,10.48-7.08,2.88-2.61,13.3,4.05,9.62a196,196,0,0,1,26.4-11.69c4.44-1.65,8.91-3.23,13.42-4.67,4.17-1.34,8.72-2.13,12.5-4.38,2.78-1.66,1.43-5.62-1.57-5.82Z" transform="translate(-18.82 -25.31)"/><path class="cls-2" d="M394.76,248.36c-4.08-1.38-7.22.72-10.77,2.6-4.18,2.19-8.18,4.7-12.22,7.12-8.37,5-16.66,10.11-24.94,15.26-6.34,3.94-.41,14.1,5.85,10q12.66-8.25,25.18-16.71c4.18-2.83,8.4-5.6,12.39-8.7,3-2.33,5.26-4.08,5.72-8a1.66,1.66,0,0,0-1.21-1.59Z" transform="translate(-18.82 -25.31)"/><path class="cls-3" d="M103.91,305.7a27.76,27.76,0,0,0-5.39,1.13c-7.29,2.26-13.71,6.41-20,10.81-.16-4.35-.56-8.74-1.08-13-1.08-8.84-3.78-19.68-6.33-29-3-11.06-6.21-22.08-9.1-33.16-.46-1.76-.9-3.53-1.34-5.3,9.48-8.43,20.07-14.94,31.71-18.4a3.26,3.26,0,0,0,.05.33c1,6,2.2,11.87,3.5,17.76,2.53,11.47,5.32,22.82,6.95,34.46S105.16,294.1,103.91,305.7Z" transform="translate(-18.82 -25.31)"/><path class="cls-3" d="M176.71,265.42l-.63.55c-7.71,6.89-15.24,14-22.49,21.39-7.42,7.54-14.46,15.43-21.54,23.26-4.29,4.75-8.33,9.87-12.75,14.58.69-6.3.22-12.94-4.49-16.82a13.24,13.24,0,0,0-8.41-2.78c2-3.74,4.19-7.39,6.28-11a259.69,259.69,0,0,1,17.91-26,376.09,376.09,0,0,1,28.89-33.55C167.67,243.34,173.13,253.87,176.71,265.42Z" transform="translate(-18.82 -25.31)"/><path class="cls-3" d="M181.84,342c-.84,11.49-2.14,22.94-3.5,34.39a89,89,0,0,1-15.26,7.45c-11.66,4.46-24.75,6.24-37.16,6.8a106.46,106.46,0,0,1-17.75-.82l-2.89-.34c2.44-10.81,5.12-21.58,7.63-32.38l1.34.2c.92.11,1.85.19,2.77.28,3,.27,5.93.44,8.9.56,10.2.41,18.32-.16,27.32-2.34a113.47,113.47,0,0,0,12.35-3.65L166,352h0c1-.46,2.05-.95,3.05-1.46,1.76-.93,3.48-1.92,5.14-3A62.51,62.51,0,0,0,181.84,342Z" transform="translate(-18.82 -25.31)"/><path class="cls-3" d="M174.55,468.59c-13.83,7.06-30.4,9.21-45.42,7-10.84-1.59-20.7-7.21-29.07-14.08-.92-.75-1.83-1.53-2.74-2.36a181.74,181.74,0,0,1,.44-24.92c4.5,3.1,8.7,6.7,13.87,8.77a70.29,70.29,0,0,0,11.56,3.22l1.12.2.21,0c.93.09,1.86.15,2.79.24,1.9.18,3.77.39,5.67.46a65.89,65.89,0,0,0,6.59-.15c.48,0,.93-.07,1.14-.1h.12c.92-.16,1.81-.35,2.72-.55,1.91-.42,3.79-.94,5.66-1.55.93-.3,1.85-.62,2.78-1,.64-.23,1.71-.69,1.86-.74h0a61.35,61.35,0,0,0,10-5.76l1.14-.84a.87.87,0,0,0,.11-.09l.07-.05,1.21-1c1.67-1.44,3.35-2.88,5-4.37a16.3,16.3,0,0,1,1.91-1.54c-.29,6.62-.38,13.24-.2,19.89A186.08,186.08,0,0,0,174.55,468.59Z" transform="translate(-18.82 -25.31)"/><path class="cls-6" d="M441.31,603c36.34-24.8,64.74-69.39,48.84-114.29-6.74-19-20.39-36-39.24-44-22.45-9.54-48-4.38-68.44,7.68-25.29,14.92-42.39,39.88-58,64-3.32,5.13,4.86,9.87,8.16,4.78,12.87-19.81,26.52-40.17,45.66-54.52,17.17-12.87,39.89-21.05,61.35-15.79,18.61,4.56,32.82,19.23,40.32,36.44,7.93,18.22,8.05,38.11,2.21,56.95-7.15,23-22.83,43-41.17,58.35-.23.2.07.6.33.42Z" transform="translate(-18.82 -25.31)"/><path class="cls-6" d="M358.15,377.07c13.3,28.4,34.12,53.26,57.45,74,4,3.58,10-2.56,5.87-5.87-24.4-19.67-44.35-43.19-62.7-68.47a.36.36,0,0,0-.62.36Z" transform="translate(-18.82 -25.31)"/><path class="cls-7" d="M499.07,439.76C499.07,333.29,585.41,247,691.89,247s192.79,86.32,192.79,192.79S798.36,632.55,691.89,632.55,499.07,546.24,499.07,439.76Z" transform="translate(-18.82 -25.31)"/><path class="cls-8" d="M691.89,632.55c106.47,0,192.79-86.31,192.79-192.79S798.36,247,691.89,247,499.07,333.29,499.07,439.76,585.41,632.55,691.89,632.55Zm0-382.71c104.71,0,189.92,85.21,189.92,189.92S796.6,629.69,691.89,629.69,502,544.48,502,439.76,587.15,249.84,691.89,249.84Z" transform="translate(-18.82 -25.31)"/><path class="cls-9" d="M556.86,503.19c28.24,50.82,70.06,83.39,132.21,83.39,91.16,0,149.91-70.2,149.91-161.37,0-10.3,31.5-18.54,33.38-18.79a188.26,188.26,0,0,1,2.93,33.05c0,102.85-83.4,186.24-186.22,186.24a186.19,186.19,0,0,1-161.33-93.16C519.07,516.19,551.18,496.15,556.86,503.19Z" transform="translate(-18.82 -25.31)"/><path class="cls-10" d="M593,549.74c-41.56-40.68-61.9-89.62-45.47-149.55,24.12-87.91,107.35-126,195.28-101.9,9.93,2.72,26.21-25.48,27-27.22a187.44,187.44,0,0,0-31.11-11.57C639.46,232.3,537,290.68,509.8,389.85A186.16,186.16,0,0,0,557,570.06C570.45,582.75,598.27,557.08,593,549.74Z" transform="translate(-18.82 -25.31)"/><path class="cls-11" d="M507.14,406.45C476.87,610.06,749.83,702.31,854.48,533.57,753.94,716.2,465.87,611.14,507.14,406.45Z" transform="translate(-18.82 -25.31)"/><path class="cls-12" d="M507.14,406.45C476.87,610.06,749.83,702.31,854.48,533.57,753.94,716.2,465.87,611.14,507.14,406.45Z" transform="translate(-18.82 -25.31)"/><path class="cls-11" d="M565.92,301.24c90.22-77.4,197.14-57.48,268,19.45,47.14,51.17,61.34,131.48,24.52,206.89C959.5,345.25,717.21,157.36,565.92,301.24Z" transform="translate(-18.82 -25.31)"/><path class="cls-13" d="M547.29,439.76a144.6,144.6,0,1,1,144.6,144.6A144.61,144.61,0,0,1,547.29,439.76Z" transform="translate(-18.82 -25.31)"/><path class="cls-14" d="M691.89,584.36a144.6,144.6,0,1,0-144.6-144.6A144.61,144.61,0,0,0,691.89,584.36Zm0-286.33c78.13,0,141.73,63.6,141.73,141.73S770,581.49,691.89,581.49,550.15,517.9,550.15,439.76,613.73,298,691.89,298Z" transform="translate(-18.82 -25.31)"/><path class="cls-15" d="M591.39,343c108-106.17,281.05,16.15,226.07,151.47C882.46,355.55,695.24,229.77,591.39,343Z" transform="translate(-18.82 -25.31)"/><path class="cls-16" d="M553,439.76A138.87,138.87,0,1,1,691.89,578.63,138.88,138.88,0,0,1,553,439.76Z" transform="translate(-18.82 -25.31)"/><g class="cls-17"><path class="cls-18" d="M661.55,587.59l10.64,1.61a15,15,0,0,1,3.79,1.06,10,10,0,0,1,2.83,1.79,6.35,6.35,0,0,1,1.65,2.34,5,5,0,0,1,.31,2.75,7.84,7.84,0,0,1-.52,1.89,4.67,4.67,0,0,1-1,1.48,7,7,0,0,1-1.69,1.16,17.6,17.6,0,0,1-2.53,1l0,.08a9.65,9.65,0,0,1,2.44,1.15,6.82,6.82,0,0,1,1.75,1.67,6,6,0,0,1,.94,2.11,6.27,6.27,0,0,1,.07,2.49,6.13,6.13,0,0,1-1.08,2.71,6.84,6.84,0,0,1-2.2,2,9.1,9.1,0,0,1-3.14,1.07,12.78,12.78,0,0,1-3.9,0L657.54,614Zm.72,25.16,4.81.73a13.42,13.42,0,0,0,3.4.14,7.36,7.36,0,0,0,2.52-.68,4.26,4.26,0,0,0,1.62-1.4,4.75,4.75,0,0,0,.75-2,6.64,6.64,0,0,0,0-2.4,4.6,4.6,0,0,0-1-2.07,6.71,6.71,0,0,0-2.18-1.6,12.57,12.57,0,0,0-3.51-1l-4.67-.7Zm1.92-12.59,5.65.85a6.74,6.74,0,0,0,2.42,0,5,5,0,0,0,1.92-.79,4.44,4.44,0,0,0,1.32-1.41,5.32,5.32,0,0,0,.67-1.94,5.06,5.06,0,0,0-.11-2.17,4.2,4.2,0,0,0-1.12-1.83,6.93,6.93,0,0,0-2.2-1.39,13.83,13.83,0,0,0-3.36-.88l-3.66-.56Z" transform="translate(-18.82 -25.31)"/><path class="cls-19" d="M714.64,590.26l.07,1.73-9.66.41,1.06,25-4.48.19-1.07-25-9.67.41-.08-1.73Z" transform="translate(-18.82 -25.31)"/><path class="cls-20" d="M731.87,600.79a14.31,14.31,0,0,0,2.1,4.67,11.26,11.26,0,0,0,3.2,3,10,10,0,0,0,4,1.39,11.64,11.64,0,0,0,4.44-.33,7.1,7.1,0,0,0,2.48-1.22,11.08,11.08,0,0,0,2-2,12.65,12.65,0,0,0,2.26-5l2.14.69a17,17,0,0,1-1.23,3,12.53,12.53,0,0,1-2,2.79,13.15,13.15,0,0,1-2.84,2.33,14,14,0,0,1-3.88,1.62,16.08,16.08,0,0,1-4.16.57,14.89,14.89,0,0,1-3.83-.45,13.4,13.4,0,0,1-3.41-1.38,13.64,13.64,0,0,1-2.83-2.17,13.91,13.91,0,0,1-2.17-2.86,13.91,13.91,0,0,1-1.86-7.06,14.33,14.33,0,0,1,.51-3.58,13.63,13.63,0,0,1,1.43-3.34,13.81,13.81,0,0,1,2.31-2.93,15.32,15.32,0,0,1,3.15-2.33,16.79,16.79,0,0,1,3.95-1.57,12.38,12.38,0,0,1,3.94-.45,13.76,13.76,0,0,1,3.56.64,13.21,13.21,0,0,1,3.11,1.45,16.28,16.28,0,0,1,2.57,2l-1.54,1.75a13.43,13.43,0,0,0-4.85-3.63,7.8,7.8,0,0,0-5-.26,11.33,11.33,0,0,0-4,1.92,10.26,10.26,0,0,0-2.77,3.24,11.28,11.28,0,0,0-1.31,4.29A13.72,13.72,0,0,0,731.87,600.79Z" transform="translate(-18.82 -25.31)"/></g><g class="cls-17"><path class="cls-21" d="M594,287.18l9.42-5.2a15,15,0,0,1,3.66-1.48,10.25,10.25,0,0,1,3.32-.3,6.53,6.53,0,0,1,2.75.85,5.3,5.3,0,0,1,1.91,2,8,8,0,0,1,.74,1.83,4.62,4.62,0,0,1,.09,1.78,6.89,6.89,0,0,1-.63,2,16.69,16.69,0,0,1-1.42,2.31l0,.07a9.29,9.29,0,0,1,2.63-.57,6.58,6.58,0,0,1,2.41.26,5.78,5.78,0,0,1,2,1.1,6.53,6.53,0,0,1,1.57,1.92,6.26,6.26,0,0,1,.79,2.81,7,7,0,0,1-.52,2.92,9.29,9.29,0,0,1-1.84,2.77,12.27,12.27,0,0,1-3.11,2.35l-10.92,6Zm9.74,8.36,5-2.76a7.22,7.22,0,0,0,1.91-1.5,4.9,4.9,0,0,0,1-1.79,4.67,4.67,0,0,0,.19-1.93,5.5,5.5,0,0,0-.66-1.95,5,5,0,0,0-1.41-1.65,4.3,4.3,0,0,0-2-.77,7.06,7.06,0,0,0-2.59.24,14.86,14.86,0,0,0-3.2,1.35l-3.24,1.79Zm6.17,11.15,4.25-2.35a13.34,13.34,0,0,0,2.79-2,7.33,7.33,0,0,0,1.58-2.06,4.25,4.25,0,0,0,.43-2.09,4.89,4.89,0,0,0-.61-2.05,6.74,6.74,0,0,0-1.5-1.86,4.59,4.59,0,0,0-2.07-1,6.57,6.57,0,0,0-2.71.06,12.41,12.41,0,0,0-3.39,1.35L604.54,297Z" transform="translate(-18.82 -25.31)"/><path class="cls-22" d="M623.35,272.57l4.19-1.62,9.66,24.93L633,297.49Z" transform="translate(-18.82 -25.31)"/><path class="cls-23" d="M660.78,261.55l.4,1.68-9.4,2.26,5.85,24.31-4.37,1.05-5.85-24.31L638,268.81l-.4-1.68Z" transform="translate(-18.82 -25.31)"/><path class="cls-24" d="M677.41,273.13a14.08,14.08,0,0,0,1,5,11.1,11.1,0,0,0,2.46,3.68,10.11,10.11,0,0,0,3.59,2.23,11.66,11.66,0,0,0,4.41.65,7.18,7.18,0,0,0,2.69-.65,10.94,10.94,0,0,0,2.37-1.51,11.76,11.76,0,0,0,1.93-2.06,12.42,12.42,0,0,0,1.37-2.28l1.92,1.13a16.51,16.51,0,0,1-1.85,2.66,12.27,12.27,0,0,1-2.51,2.3,13.55,13.55,0,0,1-3.27,1.65,14.2,14.2,0,0,1-4.15.74,16.79,16.79,0,0,1-4.18-.36,14.88,14.88,0,0,1-3.65-1.28,13.45,13.45,0,0,1-3-2.08,14,14,0,0,1-2.3-2.75,13.88,13.88,0,0,1-1.75-10.55,13.83,13.83,0,0,1,1.27-3.39,13.21,13.21,0,0,1,2.12-2.95,13.76,13.76,0,0,1,2.9-2.35,15.26,15.26,0,0,1,3.58-1.58,16,16,0,0,1,4.2-.68,13.14,13.14,0,0,1,3.94.42,14,14,0,0,1,3.34,1.41,13.31,13.31,0,0,1,2.71,2.09,16.17,16.17,0,0,1,2.08,2.52l-1.89,1.37a13.38,13.38,0,0,0-3.94-4.61,7.79,7.79,0,0,0-4.81-1.33,10.82,10.82,0,0,0-4.3,1,10.33,10.33,0,0,0-3.42,2.54,11.58,11.58,0,0,0-2.21,3.91A13.76,13.76,0,0,0,677.41,273.13Z" transform="translate(-18.82 -25.31)"/><path class="cls-25" d="M720.69,289.42a16,16,0,0,1-3.8-1.27,15,15,0,0,1-3.19-2.09,14.39,14.39,0,0,1-2.49-2.74,14.22,14.22,0,0,1-1.69-3.26,14.47,14.47,0,0,1-.78-3.59,13.88,13.88,0,0,1,.22-3.79,13.34,13.34,0,0,1,1.22-3.52,14,14,0,0,1,2.06-3,13.16,13.16,0,0,1,2.79-2.29,14.43,14.43,0,0,1,3.33-1.55,14.74,14.74,0,0,1,3.73-.68,16,16,0,0,1,4,.28,16.29,16.29,0,0,1,3.8,1.25,14.92,14.92,0,0,1,5.69,4.74,13.53,13.53,0,0,1,2.5,6.7,13.29,13.29,0,0,1-.2,3.71,13.66,13.66,0,0,1-1.23,3.58,14.08,14.08,0,0,1-2.09,3.05,13.79,13.79,0,0,1-2.79,2.37,14.94,14.94,0,0,1-3.35,1.6,15.21,15.21,0,0,1-3.74.72A15.44,15.44,0,0,1,720.69,289.42Zm.25-1.33a8.29,8.29,0,0,0,4.16-.15,8.71,8.71,0,0,0,3.43-2.05,12.62,12.62,0,0,0,2.57-3.63,19.87,19.87,0,0,0,1.6-4.92,19.35,19.35,0,0,0,.36-5.06,12.06,12.06,0,0,0-1-4.23,8.37,8.37,0,0,0-2.41-3.1,8.66,8.66,0,0,0-3.79-1.69,8.9,8.9,0,0,0-4.22.11,8.48,8.48,0,0,0-3.41,2,12,12,0,0,0-2.51,3.53,19.28,19.28,0,0,0-1.57,4.83,20.63,20.63,0,0,0-.4,5.15,12.35,12.35,0,0,0,1,4.33,8.55,8.55,0,0,0,2.39,3.19A8.36,8.36,0,0,0,720.94,288.09Z" transform="translate(-18.82 -25.31)"/><path class="cls-26" d="M752.57,270l4.2,1.6-9.56,25L743,295Z" transform="translate(-18.82 -25.31)"/><path class="cls-27" d="M769.51,276.91l2.19,1.25,5.5,25.66.15.09,9.71-17,1.71,1-13.58,23.75-.91-.52-5.68-28.29-.13-.08L758,301.12l-1.74-1Z" transform="translate(-18.82 -25.31)"/></g><path class="cls-28" d="M685.54,373.88c0-4.1.94-6.81,2.85-8.12a12.76,12.76,0,0,1,7.47-2h2.63q11.87,0,17.14,6.15t5.27,20.21q0,14.72-5.49,21.42t-18.24,6.7H685.54Zm34.59,113q-9.33,8-19.88,8-6.81,0-10.76-3.29t-4-10.54V428.81H702q13.62,0,20.54,8.24t6.92,24.05Q729.47,478.89,720.13,486.92Zm54.59-23.62q0-14.71-13.18-27.35t-38.22-13.73q21.09-3.08,32.07-12.75t11-22.18q0-15.17-13.84-24.72c-8.52-5.88-21.85-9-39.84-9.47V331.47H691.41v21.9c-1.77.06-3.53.1-5.33.19-5.7.28-11.1.42-16.34.48V331.47H648.45v22.29c-1.78-.07-3.49-.11-5.32-.2Q631.7,353,620.94,353c-.44,0-.84.59-1.21,1.76a10.74,10.74,0,0,0-.55,3.08,10.28,10.28,0,0,0,.55,2.85c.37,1.18.77,1.83,1.21,2q13,1.54,17,5.49t4.07,13v96.44c0,6-1.36,10.32-4.07,13s-8.39,4.47-17,5.49c-.44.15-.84.81-1.21,2a10.27,10.27,0,0,0-.55,2.86,10.73,10.73,0,0,0,.55,3.07c.37,1.17.77,1.76,1.21,1.76q10.77,0,22.85-.55c1.59-.08,3.13-.13,4.66-.19v22.77h21.29v-23.1c5.79.05,12.17.22,19.2.52l2.47.09v22.49H712.7v-22q35.25,0,48.63-12.41T774.72,463.3Z" transform="translate(-18.82 -25.31)"/><path class="cls-29" d="M778.55,463.3q0-14.71-13.18-27.35t-38.23-13.73q21.09-3.08,32.07-12.75t11-22.18q0-15.17-13.84-24.72c-8.52-5.88-21.84-9-39.85-9.47V331.47H695.23v21.9c-1.78.06-3.53.1-5.33.19-5.7.28-11.1.42-16.34.48V331.47H652.27v22.29c-1.77-.07-3.49-.11-5.31-.2q-11.43-.54-22.19-.55c-.44,0-.85.59-1.21,1.76a10.4,10.4,0,0,0-.55,3.08,9.92,9.92,0,0,0,.55,2.85c.36,1.18.77,1.83,1.21,2q13,1.54,17,5.49t4.06,13v96.44c0,6-1.35,10.32-4.06,13s-8.38,4.47-17,5.49c-.44.15-.85.81-1.21,2a9.91,9.91,0,0,0-.55,2.86,10.4,10.4,0,0,0,.55,3.07c.36,1.17.77,1.76,1.21,1.76q10.76,0,22.84-.55c1.59-.08,3.12-.13,4.66-.19v22.77h21.29v-23.1c5.8.05,12.17.22,19.2.52l2.47.09v22.49h21.28v-22q35.26,0,48.64-12.41T778.55,463.3Zm-89.2-89.42c0-4.1,1-6.81,2.86-8.12a12.78,12.78,0,0,1,7.47-2h2.64q11.85,0,17.13,6.15t5.27,20.21q0,14.72-5.48,21.42T701,418.26H689.35Zm34.6,113q-9.33,8-19.87,8-6.81,0-10.77-3.29t-4-10.54V428.81h16.48q13.62,0,20.54,8.24t6.92,24.05Q733.29,478.89,724,486.92Z" transform="translate(-18.82 -25.31)"/><g class="cls-17"><path class="cls-30" d="M801.25,572.16a4.92,4.92,0,0,1-3.23-8.63,163.74,163.74,0,0,0,36.81-201.88,4.91,4.91,0,1,1,8.63-4.69,173.57,173.57,0,0,1-39,214A4.87,4.87,0,0,1,801.25,572.16Z" transform="translate(-18.82 -25.31)"/><path class="cls-31" d="M580.5,572.16a4.89,4.89,0,0,1-3.22-1.21,173.53,173.53,0,0,1-39-214,4.91,4.91,0,1,1,8.63,4.69,163.7,163.7,0,0,0,36.81,201.88,4.92,4.92,0,0,1-3.22,8.63Z" transform="translate(-18.82 -25.31)"/></g><path class="cls-32" d="M798,563.53l6.69-6.81c2-2.29,4.59-4.85,7.2-8.16,1.31-1.64,2.76-3.35,4.19-5.21l4.43-5.93c1.49-2.1,2.94-4.36,4.5-6.66s2.93-4.82,4.46-7.33,2.82-5.28,4.28-8,2.68-5.63,4.06-8.53c1.2-3,2.52-6,3.66-9.05s2.32-6.22,3.21-9.46,2-6.45,2.7-9.78,1.52-6.64,2.12-10a171.94,171.94,0,0,0,2.5-20.2c.06-3.34.29-6.75.28-9.94s-.06-6.67-.25-9.87-.5-6.3-.75-9.36c-.41-3.06-.8-6.06-1.19-9-1.05-5.79-2.08-11.28-3.5-16.24-.61-2.5-1.29-4.88-2-7.1l-2-6.4c-1.5-3.92-2.76-7.37-3.91-10.17l-3.85-8.71,4.72,8.3c1.37,2.72,2.92,6.07,4.74,9.92,1.51,4,3.57,8.33,5,13.39,1.69,5,3,10.5,4.38,16.37.53,3,1.09,6,1.65,9.12s.71,6.39,1.08,9.69.33,6.55.5,9.9,0,6.85-.11,10.33a176,176,0,0,1-2.41,20.83c-.64,3.46-1.35,6.91-2.27,10.28s-1.83,6.75-2.87,10.05a162.26,162.26,0,0,1-7.46,18.88c-1.5,2.92-2.87,5.86-4.44,8.61s-3.11,5.43-4.77,7.95-3.22,5-4.9,7.26-3.29,4.49-4.91,6.55l-4.82,5.77c-1.59,1.77-3.19,3.38-4.65,4.93-2.88,3.11-5.74,5.52-7.9,7.64s-4.17,3.47-5.4,4.53Z" transform="translate(-18.82 -25.31)"/><path class="cls-33" d="M577.28,571l-2-1.68c-1.31-1.12-3.31-2.66-5.71-4.81s-5.31-4.81-8.36-8.12c-1.53-1.64-3.23-3.34-4.91-5.23l-5.1-6.13c-1.71-2.18-3.39-4.53-5.19-6.93s-3.39-5.06-5.19-7.71-3.31-5.55-5-8.43-3.1-6-4.7-9.12a175.13,175.13,0,0,1-7.88-20c-1.1-3.5-2.21-7-3-10.64s-1.72-7.23-2.39-10.9a184.32,184.32,0,0,1-2.57-22.06c-.06-3.69-.25-7.24-.12-10.94s.24-7,.52-10.49.68-6.93,1.14-10.27,1.17-6.52,1.74-9.66c1.44-6.22,2.83-12.08,4.61-17.35,1.48-5.35,3.67-10,5.26-14.19,1.91-4.08,3.54-7.64,5-10.52l5-8.81-4.11,9.22c-1.22,3-2.57,6.62-4.16,10.77l-2.13,6.77c-.8,2.36-1.52,4.88-2.17,7.54-1.52,5.26-2.62,11.08-3.75,17.22q-.62,4.65-1.27,9.52-.39,4.88-.81,9.93c-.2,3.4-.17,6.93-.27,10.46s.23,7,.29,10.55a184.13,184.13,0,0,0,2.65,21.43c.64,3.57,1.33,7.13,2.25,10.61s1.84,7,2.88,10.37,2.31,6.72,3.4,10,2.62,6.44,3.89,9.59q2.19,4.6,4.32,9c1.55,2.87,3,5.77,4.54,8.46s3.11,5.33,4.74,7.77,3.21,4.83,4.8,7.06,3.2,4.28,4.7,6.28,3.06,3.78,4.45,5.51c2.78,3.51,5.55,6.22,7.66,8.64Z" transform="translate(-18.82 -25.31)"/><text class="cls-34" transform="translate(43.08 744.09)">Money Cat</text></g></g></svg>